<svg id="visual" viewBox="0 0 900 600" width="900" height="600" xmlns="http://www.w3.org/2000/svg" xmlns:xlink="http://www.w3.org/1999/xlink" version="1.1"><path d="M0 67L13.7 67C27.3 67 54.7 67 82 68C109.3 69 136.7 71 163.8 74C191 77 218 81 245.2 80C272.3 79 299.7 73 327 69C354.3 65 381.7 63 409 68C436.3 73 463.7 85 491 90C518.3 95 545.7 93 573 90C600.3 87 627.7 83 654.8 80C682 77 709 75 736.2 72C763.3 69 790.7 65 818 70C845.3 75 872.7 89 886.3 96L900 103L900 0L886.3 0C872.7 0 845.3 0 818 0C790.7 0 763.3 0 736.2 0C709 0 682 0 654.8 0C627.7 0 600.3 0 573 0C545.7 0 518.3 0 491 0C463.7 0 436.3 0 409 0C381.7 0 354.3 0 327 0C299.7 0 272.3 0 245.2 0C218 0 191 0 163.8 0C136.7 0 109.3 0 82 0C54.7 0 27.3 0 13.7 0L0 0Z" fill="#000102"></path><path d="M0 169L13.7 199C27.3 229 54.7 289 82 317C109.3 345 136.7 341 163.8 323C191 305 218 273 245.2 254C272.3 235 299.7 229 327 233C354.3 237 381.7 251 409 246C436.3 241 463.7 217 491 223C518.3 229 545.7 265 573 279C600.3 293 627.7 285 654.8 270C682 255 709 233 736.2 227C763.3 221 790.7 231 818 235C845.3 239 872.7 237 886.3 236L900 235L900 101L886.3 94C872.7 87 845.3 73 818 68C790.7 63 763.3 67 736.2 70C709 73 682 75 654.8 78C627.7 81 600.3 85 573 88C545.7 91 518.3 93 491 88C463.7 83 436.3 71 409 66C381.7 61 354.3 63 327 67C299.7 71 272.3 77 245.2 78C218 79 191 75 163.8 72C136.7 69 109.3 67 82 66C54.7 65 27.3 65 13.7 65L0 65Z" fill="#061018"></path><path d="M0 283L13.7 301C27.3 319 54.7 355 82 373C109.3 391 136.7 391 163.8 380C191 369 218 347 245.2 331C272.3 315 299.7 305 327 308C354.3 311 381.7 327 409 324C436.3 321 463.7 299 491 302C518.3 305 545.7 333 573 351C600.3 369 627.7 377 654.8 361C682 345 709 305 736.2 302C763.3 299 790.7 333 818 337C845.3 341 872.7 315 886.3 302L900 289L900 233L886.3 234C872.7 235 845.3 237 818 233C790.7 229 763.3 219 736.2 225C709 231 682 253 654.8 268C627.7 283 600.3 291 573 277C545.7 263 518.3 227 491 221C463.7 215 436.3 239 409 244C381.7 249 354.3 235 327 231C299.7 227 272.3 233 245.2 252C218 271 191 303 163.8 321C136.7 339 109.3 343 82 315C54.7 287 27.3 227 13.7 197L0 167Z" fill="#002c4a"></path><path d="M0 433L13.7 444C27.3 455 54.7 477 82 484C109.3 491 136.7 483 163.8 476C191 469 218 463 245.2 455C272.3 447 299.7 437 327 437C354.3 437 381.7 447 409 447C436.3 447 463.7 437 491 441C518.3 445 545.7 463 573 471C600.3 479 627.7 477 654.8 453C682 429 709 383 736.2 374C763.3 365 790.7 393 818 403C845.3 413 872.7 405 886.3 401L900 397L900 287L886.3 300C872.7 313 845.3 339 818 335C790.7 331 763.3 297 736.2 300C709 303 682 343 654.8 359C627.7 375 600.3 367 573 349C545.7 331 518.3 303 491 300C463.7 297 436.3 319 409 322C381.7 325 354.3 309 327 306C299.7 303 272.3 313 245.2 329C218 345 191 367 163.8 378C136.7 389 109.3 389 82 371C54.7 353 27.3 317 13.7 299L0 281Z" fill="#061018"></path><path d="M0 601L13.7 601C27.3 601 54.7 601 82 601C109.3 601 136.7 601 163.8 601C191 601 218 601 245.2 601C272.3 601 299.7 601 327 601C354.3 601 381.7 601 409 601C436.3 601 463.7 601 491 601C518.3 601 545.7 601 573 601C600.3 601 627.7 601 654.8 601C682 601 709 601 736.2 601C763.3 601 790.7 601 818 601C845.3 601 872.7 601 886.3 601L900 601L900 395L886.3 399C872.7 403 845.3 411 818 401C790.7 391 763.3 363 736.2 372C709 381 682 427 654.8 451C627.7 475 600.3 477 573 469C545.7 461 518.3 443 491 439C463.7 435 436.3 445 409 445C381.7 445 354.3 435 327 435C299.7 435 272.3 445 245.2 453C218 461 191 467 163.8 474C136.7 481 109.3 489 82 482C54.7 475 27.3 453 13.7 442L0 431Z" fill="#000102"></path></svg>