<svg id="visual" viewBox="0 0 900 600" width="900" height="600" xmlns="http://www.w3.org/2000/svg" xmlns:xlink="http://www.w3.org/1999/xlink" version="1.1"><path d="M0 73L13.7 78C27.3 83 54.7 93 82 91C109.3 89 136.7 75 163.8 71C191 67 218 73 245.2 72C272.3 71 299.7 63 327 62C354.3 61 381.7 67 409 78C436.3 89 463.7 105 491 115C518.3 125 545.7 129 573 125C600.3 121 627.7 109 654.8 102C682 95 709 93 736.2 84C763.3 75 790.7 59 818 53C845.3 47 872.7 51 886.3 53L900 55L900 0L886.3 0C872.7 0 845.3 0 818 0C790.7 0 763.3 0 736.2 0C709 0 682 0 654.8 0C627.7 0 600.3 0 573 0C545.7 0 518.3 0 491 0C463.7 0 436.3 0 409 0C381.7 0 354.3 0 327 0C299.7 0 272.3 0 245.2 0C218 0 191 0 163.8 0C136.7 0 109.3 0 82 0C54.7 0 27.3 0 13.7 0L0 0Z" fill="#3b6cc1"></path><path d="M0 187L13.7 196C27.3 205 54.7 223 82 234C109.3 245 136.7 249 163.8 240C191 231 218 209 245.2 195C272.3 181 299.7 175 327 196C354.3 217 381.7 265 409 273C436.3 281 463.7 249 491 254C518.3 259 545.7 301 573 318C600.3 335 627.7 327 654.8 304C682 281 709 243 736.2 248C763.3 253 790.7 301 818 315C845.3 329 872.7 309 886.3 299L900 289L900 53L886.3 51C872.7 49 845.3 45 818 51C790.7 57 763.3 73 736.2 82C709 91 682 93 654.8 100C627.7 107 600.3 119 573 123C545.7 127 518.3 123 491 113C463.7 103 436.3 87 409 76C381.7 65 354.3 59 327 60C299.7 61 272.3 69 245.2 70C218 71 191 65 163.8 69C136.7 73 109.3 87 82 89C54.7 91 27.3 81 13.7 76L0 71Z" fill="#083259"></path><path d="M0 469L13.7 456C27.3 443 54.7 417 82 417C109.3 417 136.7 443 163.8 438C191 433 218 397 245.2 384C272.3 371 299.7 381 327 397C354.3 413 381.7 435 409 432C436.3 429 463.7 401 491 399C518.3 397 545.7 421 573 427C600.3 433 627.7 421 654.8 415C682 409 709 409 736.2 415C763.3 421 790.7 433 818 434C845.3 435 872.7 425 886.3 420L900 415L900 287L886.3 297C872.7 307 845.3 327 818 313C790.7 299 763.3 251 736.2 246C709 241 682 279 654.8 302C627.7 325 600.3 333 573 316C545.7 299 518.3 257 491 252C463.7 247 436.3 279 409 271C381.7 263 354.3 215 327 194C299.7 173 272.3 179 245.2 193C218 207 191 229 163.8 238C136.7 247 109.3 243 82 232C54.7 221 27.3 203 13.7 194L0 185Z" fill="#001122"></path><path d="M0 559L13.7 552C27.3 545 54.7 531 82 525C109.3 519 136.7 521 163.8 519C191 517 218 511 245.2 512C272.3 513 299.7 521 327 523C354.3 525 381.7 521 409 518C436.3 515 463.7 513 491 519C518.3 525 545.7 539 573 540C600.3 541 627.7 529 654.8 531C682 533 709 549 736.2 557C763.3 565 790.7 565 818 556C845.3 547 872.7 529 886.3 520L900 511L900 413L886.3 418C872.7 423 845.3 433 818 432C790.7 431 763.3 419 736.2 413C709 407 682 407 654.8 413C627.7 419 600.3 431 573 425C545.7 419 518.3 395 491 397C463.7 399 436.3 427 409 430C381.7 433 354.3 411 327 395C299.7 379 272.3 369 245.2 382C218 395 191 431 163.8 436C136.7 441 109.3 415 82 415C54.7 415 27.3 441 13.7 454L0 467Z" fill="#083259"></path><path d="M0 601L13.7 601C27.3 601 54.7 601 82 601C109.3 601 136.7 601 163.8 601C191 601 218 601 245.2 601C272.3 601 299.7 601 327 601C354.3 601 381.7 601 409 601C436.3 601 463.7 601 491 601C518.3 601 545.7 601 573 601C600.3 601 627.7 601 654.8 601C682 601 709 601 736.2 601C763.3 601 790.7 601 818 601C845.3 601 872.7 601 886.3 601L900 601L900 509L886.3 518C872.7 527 845.3 545 818 554C790.7 563 763.3 563 736.2 555C709 547 682 531 654.8 529C627.7 527 600.3 539 573 538C545.7 537 518.3 523 491 517C463.7 511 436.3 513 409 516C381.7 519 354.3 523 327 521C299.7 519 272.3 511 245.2 510C218 509 191 515 163.8 517C136.7 519 109.3 517 82 523C54.7 529 27.3 543 13.7 550L0 557Z" fill="#3b6cc1"></path></svg>