<svg id="visual" viewBox="0 0 900 600" width="900" height="600" xmlns="http://www.w3.org/2000/svg" xmlns:xlink="http://www.w3.org/1999/xlink" version="1.1"><rect x="0" y="0" width="900" height="600" fill="#001220"></rect><path d="M0 409L21.5 408.8C43 408.7 86 408.3 128.8 401.7C171.7 395 214.3 382 257.2 372.8C300 363.7 343 358.3 385.8 355.3C428.7 352.3 471.3 351.7 514.2 354.8C557 358 600 365 642.8 376C685.7 387 728.3 402 771.2 409.7C814 417.3 857 417.7 878.5 417.8L900 418L900 601L878.5 601C857 601 814 601 771.2 601C728.3 601 685.7 601 642.8 601C600 601 557 601 514.2 601C471.3 601 428.7 601 385.8 601C343 601 300 601 257.2 601C214.3 601 171.7 601 128.8 601C86 601 43 601 21.5 601L0 601Z" fill="#030628"></path><path d="M0 416L21.5 413.2C43 410.3 86 404.7 128.8 406C171.7 407.3 214.3 415.7 257.2 424.8C300 434 343 444 385.8 450C428.7 456 471.3 458 514.2 449.7C557 441.3 600 422.7 642.8 422.5C685.7 422.3 728.3 440.7 771.2 440.2C814 439.7 857 420.3 878.5 410.7L900 401L900 601L878.5 601C857 601 814 601 771.2 601C728.3 601 685.7 601 642.8 601C600 601 557 601 514.2 601C471.3 601 428.7 601 385.8 601C343 601 300 601 257.2 601C214.3 601 171.7 601 128.8 601C86 601 43 601 21.5 601L0 601Z" fill="#0042a8"></path><path d="M0 479L21.5 473.3C43 467.7 86 456.3 128.8 456.5C171.7 456.7 214.3 468.3 257.2 476.3C300 484.3 343 488.7 385.8 481.8C428.7 475 471.3 457 514.2 448C557 439 600 439 642.8 449.7C685.7 460.3 728.3 481.7 771.2 493.7C814 505.7 857 508.3 878.5 509.7L900 511L900 601L878.5 601C857 601 814 601 771.2 601C728.3 601 685.7 601 642.8 601C600 601 557 601 514.2 601C471.3 601 428.7 601 385.8 601C343 601 300 601 257.2 601C214.3 601 171.7 601 128.8 601C86 601 43 601 21.5 601L0 601Z" fill="#0066ff"></path><path d="M0 533L21.5 531.5C43 530 86 527 128.8 520.2C171.7 513.3 214.3 502.7 257.2 497.2C300 491.7 343 491.3 385.8 497.2C428.7 503 471.3 515 514.2 515.3C557 515.7 600 504.3 642.8 501.2C685.7 498 728.3 503 771.2 510.8C814 518.7 857 529.3 878.5 534.7L900 540L900 601L878.5 601C857 601 814 601 771.2 601C728.3 601 685.7 601 642.8 601C600 601 557 601 514.2 601C471.3 601 428.7 601 385.8 601C343 601 300 601 257.2 601C214.3 601 171.7 601 128.8 601C86 601 43 601 21.5 601L0 601Z" fill="#0042a8"></path><path d="M0 565L21.5 559.2C43 553.3 86 541.7 128.8 540.3C171.7 539 214.3 548 257.2 550.5C300 553 343 549 385.8 551.7C428.7 554.3 471.3 563.7 514.2 563.2C557 562.7 600 552.3 642.8 544.3C685.7 536.3 728.3 530.7 771.2 532.5C814 534.3 857 543.7 878.5 548.3L900 553L900 601L878.5 601C857 601 814 601 771.2 601C728.3 601 685.7 601 642.8 601C600 601 557 601 514.2 601C471.3 601 428.7 601 385.8 601C343 601 300 601 257.2 601C214.3 601 171.7 601 128.8 601C86 601 43 601 21.5 601L0 601Z" fill="#030628"></path></svg>